<?xml version="1.0" standalone="no"?>
<!DOCTYPE svg PUBLIC "-//W3C//DTD SVG 20010904//EN"
 "http://www.w3.org/TR/2001/REC-SVG-20010904/DTD/svg10.dtd">
<svg version="1.0" xmlns="http://www.w3.org/2000/svg"
 width="512.000000pt" height="512.000000pt" viewBox="0 0 512.000000 512.000000"
 preserveAspectRatio="xMidYMid meet">

<g transform="translate(0.000000,512.000000) scale(0.100000,-0.100000)"
fill="#000000" stroke="none">
<path d="M320 3895 l-323 -925 6 -153 c6 -173 21 -239 90 -372 30 -57 66 -105
124 -165 l83 -85 0 -947 0 -948 2260 0 2260 0 0 948 0 947 83 85 c58 60 94
108 124 165 69 133 84 199 90 373 l6 152 -323 925 -323 925 -1917 0 -1917 0
-323 -925z m1154 608 c-2 -10 -58 -328 -124 -707 -66 -380 -122 -691 -124
-693 -1 -2 -197 -2 -433 -1 l-431 3 247 707 246 708 312 0 c291 0 311 -1 307
-17z m936 -693 l0 -710 -435 0 c-430 0 -435 0 -435 20 0 17 216 1274 236 1373
l6 27 314 0 314 0 0 -710z m934 683 c20 -99 236 -1356 236 -1373 0 -20 -5 -20
-435 -20 l-435 0 0 710 0 710 314 0 314 0 6 -27z m1167 -681 l247 -707 -431
-3 c-236 -1 -432 -1 -433 1 -2 2 -58 313 -124 693 -66 379 -122 697 -124 707
-4 16 16 17 307 17 l312 0 246 -708z m-3314 -1072 c-11 -121 -107 -264 -222
-330 -259 -148 -584 -7 -660 287 -8 31 -15 68 -15 80 l0 23 451 0 452 0 -6
-60z m1213 37 c0 -39 -28 -135 -56 -189 -69 -136 -239 -238 -399 -238 -70 0
-174 31 -233 69 -114 73 -199 203 -209 321 l-6 60 452 0 451 0 0 -23z m1197
-37 c-11 -121 -107 -264 -222 -330 -259 -148 -584 -7 -660 287 -8 31 -15 68
-15 80 l0 23 451 0 452 0 -6 -60z m1213 37 c0 -39 -28 -135 -56 -189 -69 -136
-239 -238 -399 -238 -70 0 -174 31 -233 69 -114 73 -199 203 -209 321 l-6 60
452 0 451 0 0 -23z m-3273 -605 c191 -123 430 -154 641 -83 120 40 203 91 294
180 l78 76 82 -80 c216 -210 525 -270 805 -158 91 36 178 95 253 172 l65 66
65 -66 c158 -161 362 -239 587 -225 l103 6 0 -730 0 -730 -1960 0 -1960 0 0
730 0 730 103 -6 c225 -14 429 64 587 225 l65 66 65 -66 c36 -37 93 -84 127
-107z"/>
</g>
</svg>
