<?xml version="1.0" standalone="no"?>
<!DOCTYPE svg PUBLIC "-//W3C//DTD SVG 20010904//EN"
 "http://www.w3.org/TR/2001/REC-SVG-20010904/DTD/svg10.dtd">
<svg version="1.0" xmlns="http://www.w3.org/2000/svg"
 width="512.000000pt" height="512.000000pt" viewBox="0 0 512.000000 512.000000"
 preserveAspectRatio="xMidYMid meet">

<g transform="translate(0.000000,512.000000) scale(0.100000,-0.100000)"
fill="#000000" stroke="none">
<path d="M2321 5109 c-486 -43 -989 -249 -1376 -564 -114 -92 -294 -274 -384
-387 -229 -287 -417 -675 -495 -1023 -49 -218 -60 -325 -60 -575 0 -250 11
-357 60 -575 79 -355 272 -749 509 -1040 92 -114 274 -294 387 -384 287 -229
675 -417 1023 -495 218 -49 325 -60 575 -60 250 0 357 11 575 60 261 58 603
204 828 353 389 259 688 599 893 1016 165 337 246 658 261 1033 23 598 -168
1183 -545 1672 -84 109 -323 348 -432 432 -528 407 -1164 595 -1819 537z m579
-184 c133 -20 323 -66 454 -111 214 -74 501 -232 690 -382 91 -71 317 -297
388 -388 150 -189 308 -476 382 -690 93 -273 130 -497 130 -794 0 -243 -15
-369 -69 -585 -213 -844 -886 -1517 -1730 -1730 -216 -54 -342 -69 -585 -69
-297 0 -521 37 -794 130 -214 74 -501 232 -690 382 -91 71 -317 297 -388 388
-150 189 -308 476 -382 690 -45 133 -91 321 -113 464 -24 159 -24 501 0 660
39 259 109 485 221 715 126 257 251 432 460 641 147 146 224 210 378 312 317
209 692 341 1083 381 123 13 437 5 565 -14z"/>
<path d="M2451 4259 c-360 -46 -654 -322 -726 -678 -23 -111 -16 -294 14 -399
43 -148 158 -331 260 -411 23 -19 39 -37 34 -41 -4 -4 -39 -19 -78 -34 -352
-137 -667 -426 -839 -771 -108 -216 -162 -425 -173 -667 l-6 -148 1623 0 1623
0 -6 148 c-11 242 -65 451 -173 667 -172 344 -496 642 -839 770 -38 15 -74 30
-78 34 -5 5 10 23 32 40 102 81 220 267 263 417 31 107 33 344 4 444 -101 347
-376 586 -728 630 -92 11 -115 11 -207 -1z m206 -174 c237 -23 466 -213 550
-458 25 -74 28 -95 27 -212 0 -106 -4 -142 -22 -199 -38 -118 -80 -184 -177
-281 -144 -144 -277 -199 -480 -199 -167 0 -275 37 -412 141 -84 64 -152 149
-199 248 -195 418 76 906 535 965 31 4 70 6 86 4 17 -2 58 -6 92 -9z m-310
-1497 c114 -33 303 -32 429 1 l91 24 94 -27 c444 -127 798 -458 963 -898 29
-78 72 -267 79 -350 l6 -58 -255 0 -254 0 0 170 0 170 -85 0 -85 0 0 -170 0
-170 -770 0 -770 0 0 170 0 170 -85 0 -85 0 0 -170 0 -170 -254 0 -255 0 6 58
c3 31 16 108 30 170 112 516 495 927 1003 1076 105 31 103 31 197 4z"/>
</g>
</svg>
