<?xml version="1.0" standalone="no"?>
<!DOCTYPE svg PUBLIC "-//W3C//DTD SVG 20010904//EN"
 "http://www.w3.org/TR/2001/REC-SVG-20010904/DTD/svg10.dtd">
<svg version="1.0" xmlns="http://www.w3.org/2000/svg"
 width="512.000000pt" height="512.000000pt" viewBox="0 0 512.000000 512.000000"
 preserveAspectRatio="xMidYMid meet">

<g transform="translate(0.000000,512.000000) scale(0.100000,-0.100000)"
fill="#000000" stroke="none">
<path d="M324 5101 c-148 -42 -270 -167 -308 -316 -23 -87 -24 -1850 -1 -1938
35 -133 119 -238 235 -295 78 -38 159 -52 298 -52 l102 0 0 -393 0 -394 23
-21 c37 -35 81 -29 126 15 21 21 201 208 401 416 l362 377 54 0 54 0 0 -613
c0 -397 4 -634 11 -673 23 -129 114 -255 226 -317 104 -56 112 -57 910 -57
l731 0 399 -415 c219 -229 408 -418 421 -421 36 -10 71 4 87 36 13 24 15 89
15 415 l0 385 114 0 c62 0 137 5 167 10 173 33 308 162 354 337 23 87 22 1860
0 1948 -34 128 -127 239 -252 298 l-68 32 -677 3 -678 3 0 602 c0 360 -4 628
-10 667 -29 180 -171 331 -348 369 -38 8 -430 11 -1370 10 -1226 0 -1321 -2
-1378 -18z m2743 -156 c68 -20 143 -88 174 -157 l24 -53 0 -630 0 -630 -625
-5 c-689 -6 -654 -2 -761 -71 -100 -64 -176 -179 -199 -298 -5 -30 -10 -141
-10 -247 l0 -194 -88 0 -89 0 -341 -355 -342 -355 0 321 c0 345 -4 373 -53
384 -12 2 -101 6 -197 8 -208 3 -251 16 -325 99 -79 88 -75 37 -75 1048 0 973
-1 949 55 1030 32 47 89 87 147 105 35 11 282 14 1349 14 1136 1 1312 -1 1356
-14z m1731 -1666 c72 -35 114 -83 142 -157 19 -51 20 -80 20 -961 0 -776 -2
-915 -15 -958 -19 -64 -82 -136 -149 -171 -49 -25 -59 -26 -248 -32 -172 -4
-200 -7 -215 -23 -16 -16 -18 -49 -23 -356 l-5 -339 -339 354 c-187 195 -340
355 -340 356 -1 2 -354 5 -786 8 -771 5 -786 5 -831 26 -66 31 -114 78 -146
142 l-28 57 0 935 0 935 23 47 c32 63 85 116 146 144 l51 24 1341 0 1341 0 61
-31z"/>
<path d="M961 4644 c-131 -35 -257 -134 -318 -250 -51 -96 -78 -238 -53 -283
16 -30 65 -46 99 -31 33 13 47 42 55 114 13 111 91 220 193 272 52 26 68 29
153 29 84 0 102 -3 151 -28 67 -32 142 -109 172 -175 18 -38 22 -66 22 -142 0
-85 -3 -101 -28 -150 -38 -74 -77 -112 -172 -170 -163 -99 -225 -207 -225
-391 0 -96 20 -129 80 -129 58 0 80 33 80 120 0 135 47 211 170 276 30 16 79
54 110 84 200 200 200 520 0 720 -129 129 -316 181 -489 134z"/>
<path d="M2137 4468 c-24 -19 -38 -64 -28 -91 20 -52 19 -52 378 -52 l335 0
24 28 c29 34 31 66 3 101 l-20 26 -338 0 c-254 0 -341 -3 -354 -12z"/>
<path d="M2137 3978 c-27 -22 -39 -66 -25 -96 25 -51 37 -52 386 -50 l324 3
24 28 c29 34 31 66 3 101 l-20 26 -338 0 c-254 0 -341 -3 -354 -12z"/>
<path d="M1033 3165 c-88 -38 -95 -174 -11 -225 116 -70 248 62 178 178 -34
55 -104 75 -167 47z"/>
<path d="M2566 2709 c-35 -27 -36 -86 -3 -117 l23 -22 806 0 c444 0 814 3 823
6 18 7 45 55 45 79 0 9 -13 30 -29 46 l-29 29 -805 0 c-799 0 -804 0 -831 -21z"/>
<path d="M2590 2233 c-54 -20 -69 -92 -27 -131 l23 -22 806 0 c444 0 814 3
823 6 18 7 45 55 45 79 0 9 -13 30 -29 46 l-29 29 -799 -1 c-439 0 -805 -3
-813 -6z"/>
<path d="M2590 1743 c-53 -20 -69 -94 -28 -133 22 -20 30 -20 834 -20 758 0
813 1 833 18 11 9 24 31 27 49 5 27 1 37 -24 63 l-30 30 -799 -1 c-439 0 -805
-3 -813 -6z"/>
</g>
</svg>
