<?xml version="1.0" standalone="no"?>
<!DOCTYPE svg PUBLIC "-//W3C//DTD SVG 20010904//EN"
 "http://www.w3.org/TR/2001/REC-SVG-20010904/DTD/svg10.dtd">
<svg version="1.0" xmlns="http://www.w3.org/2000/svg"
 width="512.000000pt" height="512.000000pt" viewBox="0 0 512.000000 512.000000"
 preserveAspectRatio="xMidYMid meet">

<g transform="translate(0.000000,512.000000) scale(0.100000,-0.100000)"
fill="#000000" stroke="none">
<path d="M2810 4626 c-437 -93 -714 -496 -636 -926 26 -145 72 -239 193 -402
l73 -98 -785 0 c-657 0 -785 2 -785 14 0 7 -16 45 -35 83 -43 86 -103 144
-193 186 -61 29 -76 32 -162 32 -86 0 -101 -3 -162 -32 -93 -44 -151 -100
-196 -191 l-37 -76 0 -1216 0 -1216 37 -76 c45 -91 103 -147 196 -191 l67 -32
2175 0 2175 0 67 32 c93 44 151 100 196 191 l37 76 0 1216 0 1216 -37 76 c-45
91 -103 147 -196 191 -61 29 -76 32 -162 32 -86 0 -101 -3 -162 -32 -90 -42
-150 -100 -193 -186 -19 -38 -35 -76 -35 -83 0 -12 -66 -14 -385 -14 l-385 0
74 99 c89 120 126 184 159 277 82 230 51 493 -82 696 -113 173 -274 288 -481
345 -78 21 -260 26 -340 9z m285 -161 c214 -44 410 -223 476 -435 46 -146 32
-324 -36 -465 -33 -70 -557 -780 -575 -780 -18 0 -542 710 -575 780 -87 184
-85 381 5 561 132 262 417 399 705 339z m-2541 -1117 c55 -16 138 -99 154
-154 9 -31 12 -280 12 -1016 l0 -974 -72 35 c-67 34 -78 36 -168 36 -90 0
-101 -2 -168 -36 l-72 -35 0 974 c0 736 3 985 12 1016 15 51 99 137 148 153
48 15 105 15 154 1z m4160 0 c55 -16 138 -99 154 -154 9 -31 12 -280 12 -1016
l0 -974 -72 35 c-67 34 -78 36 -168 36 -90 0 -101 -2 -168 -36 l-72 -35 0 974
c0 736 3 985 12 1016 15 51 99 137 148 153 48 15 105 15 154 1z m-2794 -355
c0 -58 -29 -126 -63 -148 -13 -8 -124 -49 -246 -90 -236 -79 -265 -92 -323
-152 -69 -71 -82 -115 -88 -311 -6 -222 3 -212 -186 -212 l-134 0 0 480 0 480
520 0 520 0 0 -47z m318 -65 c-6 -138 -28 -204 -96 -279 -70 -78 -115 -102
-334 -175 -209 -69 -250 -92 -274 -151 -17 -40 -18 -181 -2 -237 16 -55 99
-138 154 -154 31 -9 249 -12 874 -12 625 0 843 3 874 12 55 16 138 99 154 154
9 30 12 169 12 498 l0 456 80 0 80 0 0 -456 c0 -329 3 -468 12 -498 16 -55 99
-138 154 -154 24 -7 100 -12 178 -12 l136 0 0 -79 0 -80 -189 -3 c-207 -3
-216 -6 -265 -72 -20 -26 -21 -41 -21 -246 0 -205 1 -220 21 -246 49 -66 58
-69 265 -72 l189 -3 0 -79 0 -79 -189 -3 c-173 -3 -192 -5 -217 -24 -60 -44
-69 -67 -72 -185 l-4 -109 -79 0 -79 0 0 456 c0 329 -3 468 -12 498 -16 55
-99 138 -154 154 -58 17 -810 17 -868 0 -55 -16 -138 -99 -154 -154 -9 -30
-12 -169 -12 -498 l0 -456 -80 0 -80 0 0 535 0 536 -25 24 -24 25 -311 0 -311
0 -24 -25 c-23 -22 -25 -31 -25 -124 0 -306 -89 -634 -248 -909 l-36 -62 -98
0 c-54 0 -98 3 -98 6 0 3 13 24 29 47 48 70 128 226 166 325 71 185 110 370
122 573 6 116 6 117 -20 143 l-26 26 -216 0 -215 0 0 80 0 80 136 0 c170 0
204 9 269 75 66 66 75 98 75 279 0 127 3 152 20 186 11 22 31 47 44 55 13 9
123 49 245 90 122 40 236 83 254 94 93 58 147 152 155 269 l5 72 79 0 80 0 -4
-112z m382 33 c33 -44 60 -83 60 -86 0 -3 -13 -17 -28 -30 -15 -13 -41 -47
-57 -77 -26 -46 -30 -63 -30 -128 0 -58 5 -85 23 -118 81 -153 297 -236 485
-187 120 31 211 97 259 187 18 34 23 59 23 118 0 85 -19 131 -80 195 -19 21
-35 40 -35 42 0 2 27 40 60 84 58 75 63 79 100 79 l40 0 0 -455 0 -456 -25
-24 -24 -25 -831 0 -831 0 -25 25 c-22 22 -25 32 -22 91 l3 67 195 66 c227 77
272 101 360 190 110 112 160 242 160 424 l0 97 80 0 79 0 61 -79z m1620 -401
l0 -480 -135 0 c-131 0 -137 1 -160 25 l-25 24 0 456 0 455 160 0 160 0 0
-480z m-1391 95 c95 -128 127 -128 222 0 35 47 68 84 74 82 18 -6 55 -69 55
-94 0 -85 -115 -163 -240 -163 -137 0 -259 94 -236 183 6 26 43 77 55 77 4 0
35 -38 70 -85z m-1649 -1064 c0 -45 -35 -258 -55 -334 -46 -177 -145 -389
-251 -539 l-55 -78 -196 0 c-234 0 -259 6 -328 75 -102 101 -102 229 0 330
101 102 229 102 330 0 52 -51 75 -102 75 -164 0 -71 85 -106 135 -56 l25 24 0
376 0 375 160 0 c94 0 160 -4 160 -9z m880 -471 l0 -480 -325 0 c-179 0 -325
2 -325 4 0 2 25 55 55 117 104 219 165 446 187 697 l12 142 198 0 198 0 0
-480z m1335 455 l25 -24 0 -456 0 -455 -440 0 -440 0 0 455 0 456 25 24 24 25
391 0 391 0 24 -25z m825 -135 l0 -160 -160 0 -160 0 0 160 0 160 160 0 160 0
0 -160z m474 -332 c86 -26 166 -136 166 -228 0 -92 -80 -202 -166 -228 -29 -8
-151 -12 -418 -12 l-376 0 0 80 0 80 215 0 c216 0 216 0 240 25 16 15 25 35
25 56 0 62 23 113 75 164 70 71 145 90 239 63z"/>
<path d="M2866 4310 c-63 -16 -153 -70 -197 -117 -22 -24 -55 -74 -72 -111
-29 -61 -32 -76 -32 -163 0 -90 2 -99 37 -171 45 -91 103 -147 196 -191 61
-29 76 -32 162 -32 86 0 101 3 162 32 93 44 151 100 196 191 35 72 37 81 37
172 0 91 -2 100 -37 172 -68 136 -188 217 -336 224 -42 2 -94 -1 -116 -6z
m168 -162 c86 -26 166 -136 166 -228 0 -124 -116 -240 -240 -240 -63 0 -114
23 -165 75 -102 101 -102 229 0 330 70 71 145 90 239 63z"/>
</g>
</svg>
