<?xml version="1.0" standalone="no"?>
<!DOCTYPE svg PUBLIC "-//W3C//DTD SVG 20010904//EN"
 "http://www.w3.org/TR/2001/REC-SVG-20010904/DTD/svg10.dtd">
<svg version="1.0" xmlns="http://www.w3.org/2000/svg"
 width="512.000000pt" height="512.000000pt" viewBox="0 0 512.000000 512.000000"
 preserveAspectRatio="xMidYMid meet">

<g transform="translate(0.000000,512.000000) scale(0.100000,-0.100000)"
fill="#000000" stroke="none">
<path d="M1881 4671 c-364 -160 -660 -295 -667 -306 -12 -16 -14 -159 -14
-846 0 -773 1 -828 18 -847 22 -25 1313 -682 1341 -682 29 0 1315 644 1340
672 21 22 21 26 21 854 0 778 -1 833 -17 852 -21 24 -1316 592 -1347 591 -12
0 -315 -130 -675 -288z m1216 -113 c293 -128 533 -235 533 -238 0 -3 -241
-110 -535 -239 l-535 -234 -135 59 c-74 33 -135 61 -135 64 0 3 93 45 207 95
113 49 217 98 230 108 29 23 32 86 5 110 -23 21 -375 177 -399 177 -10 0 -148
-57 -307 -126 l-288 -126 -124 53 c-68 30 -124 56 -124 59 0 5 1048 467 1065
469 6 1 250 -103 542 -231z m-699 -294 c34 -15 62 -30 62 -34 0 -3 -85 -44
-190 -89 l-190 -83 -65 28 c-36 16 -65 31 -65 34 0 7 358 168 375 169 6 1 38
-11 73 -25z m-815 -164 l97 -42 0 -240 c0 -147 4 -247 10 -259 13 -23 360
-199 394 -199 13 0 34 9 47 19 24 19 24 23 29 243 l5 224 158 -69 157 -69 0
-755 0 -754 -377 192 c-208 105 -460 234 -560 286 l-183 94 0 714 0 714 63
-28 c34 -16 106 -47 160 -71z m2177 -620 l0 -720 -560 -280 -560 -280 0 754 0
753 558 246 c306 134 558 245 560 246 1 1 2 -323 2 -719z m-1764 440 c2 0 4
-79 4 -175 l0 -175 -80 40 -80 40 0 170 0 169 76 -34 c42 -19 78 -35 80 -35z"/>
<path d="M2933 3026 c-95 -47 -181 -94 -193 -106 -43 -43 -6 -130 55 -130 14
0 106 40 204 89 157 79 180 94 189 121 18 50 -6 92 -58 105 -20 5 -66 -14
-197 -79z"/>
<path d="M2923 2702 c-95 -49 -180 -97 -188 -108 -35 -46 3 -124 60 -124 35 0
382 175 395 199 27 52 -11 121 -67 121 -15 -1 -106 -40 -200 -88z"/>
<path d="M769 3177 c-56 -21 -97 -54 -123 -100 -13 -23 -124 -350 -247 -727
-271 -830 -257 -727 -155 -1110 52 -195 69 -277 73 -347 l6 -93 -57 0 c-47 0
-61 -4 -81 -25 l-25 -24 0 -271 0 -271 25 -24 24 -25 591 0 591 0 24 25 25 24
0 271 0 271 -25 24 c-20 21 -34 25 -84 25 l-59 0 28 58 c46 92 60 168 60 342
0 100 -5 173 -14 205 -33 123 -270 794 -292 827 -13 20 -45 49 -71 64 -27 15
-49 28 -51 30 -2 1 31 127 72 280 41 154 77 295 81 316 16 83 -46 198 -128
239 -51 27 -140 34 -188 16z m124 -167 c14 -11 29 -29 32 -39 9 -28 -161 -654
-181 -666 -71 -44 -113 -109 -121 -187 -4 -45 7 -99 75 -353 57 -211 86 -303
99 -313 31 -22 62 -25 89 -8 54 36 53 41 -30 353 -42 158 -76 295 -76 304 0 9
9 28 21 43 25 31 76 35 108 9 14 -12 63 -140 152 -398 l132 -380 4 -160 c5
-187 -7 -243 -77 -350 l-42 -65 -299 0 -299 0 0 68 c0 90 -10 142 -86 435 -35
137 -64 264 -64 282 0 30 427 1362 451 1406 22 42 72 50 112 19z m387 -2530
l0 -160 -480 0 -480 0 0 160 0 160 480 0 480 0 0 -160z"/>
<path d="M4198 3176 c-83 -31 -138 -91 -158 -176 -14 -58 -17 -43 77 -394 40
-153 73 -279 71 -280 -2 -2 -24 -14 -49 -29 -25 -14 -57 -43 -71 -64 -22 -32
-262 -711 -297 -838 -6 -22 -11 -110 -11 -195 0 -174 14 -250 60 -342 l28 -58
-59 0 c-50 0 -64 -4 -84 -25 l-25 -24 0 -271 0 -271 25 -24 24 -25 591 0 591
0 24 25 25 24 0 271 0 271 -25 24 c-20 21 -34 25 -81 25 l-57 0 6 93 c4 70 21
152 73 347 102 384 116 283 -159 1123 -136 415 -235 704 -251 727 -52 79 -179
120 -268 86z m112 -156 c11 -6 24 -19 29 -29 24 -45 451 -1376 451 -1406 0
-18 -29 -145 -64 -282 -76 -293 -86 -345 -86 -435 l0 -68 -299 0 -299 0 -42
65 c-70 107 -82 163 -77 350 l4 160 132 380 c89 258 138 386 152 398 32 26 83
22 108 -9 12 -15 21 -34 21 -43 0 -9 -34 -145 -76 -303 -68 -256 -75 -291 -64
-317 24 -58 110 -63 138 -8 6 12 46 150 88 307 64 241 75 293 71 338 -8 78
-50 143 -121 187 -20 12 -190 638 -181 666 8 25 53 59 77 59 11 0 28 -5 38
-10z m490 -2540 l0 -160 -480 0 -480 0 0 160 0 160 480 0 480 0 0 -160z"/>
</g>
</svg>
