<?xml version="1.0" standalone="no"?>
<!DOCTYPE svg PUBLIC "-//W3C//DTD SVG 20010904//EN"
 "http://www.w3.org/TR/2001/REC-SVG-20010904/DTD/svg10.dtd">
<svg version="1.0" xmlns="http://www.w3.org/2000/svg"
 width="512.000000pt" height="512.000000pt" viewBox="0 0 512.000000 512.000000"
 preserveAspectRatio="xMidYMid meet">

<g transform="translate(0.000000,512.000000) scale(0.100000,-0.100000)"
fill="#000000" stroke="none">
<path d="M1201 4944 c-161 -43 -283 -167 -326 -329 -13 -52 -15 -294 -15
-2055 0 -2185 -4 -2049 58 -2164 35 -65 113 -143 178 -178 113 -61 47 -58
1464 -58 1417 0 1351 -3 1464 58 65 35 143 113 178 178 62 115 58 -21 58 2164
0 1761 -2 2003 -15 2055 -43 164 -166 287 -330 330 -86 22 -2630 22 -2714 -1z
m2751 -117 c74 -36 139 -102 175 -175 l28 -57 0 -2035 0 -2035 -28 -57 c-36
-73 -102 -139 -175 -175 l-57 -28 -1335 0 -1335 0 -57 28 c-73 36 -139 101
-175 175 l-28 57 -3 2005 c-2 1398 1 2021 8 2057 24 114 133 228 248 259 37
10 320 12 1362 11 l1315 -2 57 -28z"/>
<path d="M2380 4541 c-339 -74 -601 -323 -691 -656 -18 -65 -22 -107 -22 -225
0 -118 4 -160 22 -225 88 -324 340 -570 668 -652 103 -26 323 -23 428 6 510
138 791 662 625 1162 -92 278 -338 506 -625 580 -116 30 -295 34 -405 10z
m130 -476 l0 -395 -375 0 -375 0 0 29 c0 49 27 172 53 243 76 209 256 389 465
465 62 23 173 50 215 52 16 1 17 -24 17 -394z m240 370 c144 -35 274 -109 375
-211 54 -55 141 -171 133 -179 -1 -2 -148 -80 -325 -173 l-323 -170 0 380 0
380 43 -7 c23 -3 67 -12 97 -20z m573 -537 c88 -284 12 -592 -199 -802 -293
-293 -762 -314 -1077 -47 -143 120 -251 308 -273 471 l-7 50 405 0 405 0 44
24 c86 48 674 356 680 356 3 0 13 -24 22 -52z"/>
<path d="M2776 2244 c-14 -13 -16 -64 -16 -400 l0 -384 -200 0 -200 0 0 184
c0 154 -3 187 -16 200 -23 24 -545 24 -568 0 -14 -14 -16 -73 -16 -500 l0
-484 -134 0 c-109 0 -138 -3 -150 -16 -20 -20 -20 -48 0 -68 14 -14 126 -16
1084 -16 958 0 1070 2 1084 16 9 8 16 24 16 34 0 43 -24 50 -166 50 l-134 0 0
684 c0 609 -2 686 -16 700 -13 14 -53 16 -284 16 -231 0 -271 -2 -284 -16z
m484 -734 l0 -650 -200 0 -200 0 0 650 0 650 200 0 200 0 0 -650z m-1000 -200
l0 -450 -200 0 -200 0 0 450 0 450 200 0 200 0 0 -450z m500 -200 l0 -250
-200 0 -200 0 0 250 0 250 200 0 200 0 0 -250z"/>
</g>
</svg>
