<?xml version="1.0" standalone="no"?>
<!DOCTYPE svg PUBLIC "-//W3C//DTD SVG 20010904//EN"
 "http://www.w3.org/TR/2001/REC-SVG-20010904/DTD/svg10.dtd">
<svg version="1.0" xmlns="http://www.w3.org/2000/svg"
 width="512.000000pt" height="512.000000pt" viewBox="0 0 512.000000 512.000000"
 preserveAspectRatio="xMidYMid meet">

<g transform="translate(0.000000,512.000000) scale(0.100000,-0.100000)"
fill="#000000" stroke="none">
<path d="M2400 4774 c-557 -51 -1022 -266 -1405 -649 -348 -347 -556 -762
-632 -1255 -24 -156 -24 -461 0 -620 74 -485 283 -905 622 -1246 137 -137 218
-204 372 -305 261 -171 568 -286 893 -336 140 -21 462 -24 595 -5 464 66 874
256 1210 562 86 78 104 102 105 138 0 29 -51 82 -80 82 -29 0 -70 -23 -100
-55 -46 -51 -204 -178 -295 -238 -121 -79 -345 -188 -480 -232 -738 -241
-1542 -49 -2090 500 -662 661 -793 1676 -321 2478 299 508 796 860 1378 977
632 127 1330 -75 1788 -516 65 -62 98 -78 137 -63 37 14 52 38 53 80 0 32 -8
45 -67 102 -318 307 -739 512 -1198 582 -99 15 -398 27 -485 19z"/>
<path d="M3613 3728 c-28 -32 -34 -54 -22 -86 5 -15 209 -226 452 -469 l442
-443 -1448 0 -1448 0 -24 -25 c-34 -33 -34 -87 0 -120 l24 -25 1448 0 1448 0
-442 -442 c-243 -244 -447 -455 -452 -470 -21 -55 24 -111 83 -106 33 3 83 50
566 533 295 294 533 540 537 554 3 12 -1 35 -8 50 -8 14 -250 261 -539 549
-497 493 -527 522 -561 522 -24 0 -42 -7 -56 -22z"/>
</g>
</svg>
