<?xml version="1.0" standalone="no"?>
<!DOCTYPE svg PUBLIC "-//W3C//DTD SVG 20010904//EN"
 "http://www.w3.org/TR/2001/REC-SVG-20010904/DTD/svg10.dtd">
<svg version="1.0" xmlns="http://www.w3.org/2000/svg"
 width="512.000000pt" height="512.000000pt" viewBox="0 0 512.000000 512.000000"
 preserveAspectRatio="xMidYMid meet">

<g transform="translate(0.000000,512.000000) scale(0.100000,-0.100000)"
fill="#000000" stroke="none">
<path d="M4869 5033 c-36 -17 -82 -55 -137 -112 -45 -47 -567 -671 -1158
-1386 -592 -715 -1082 -1301 -1088 -1302 -6 -1 -155 167 -331 374 -345 405
-385 449 -448 491 -196 132 -472 68 -600 -140 -80 -131 -74 -326 16 -457 17
-25 273 -328 570 -673 457 -533 547 -632 595 -661 90 -54 150 -70 251 -65 103
5 192 41 265 109 34 30 342 502 1140 1743 601 936 1101 1716 1111 1735 53 105
72 240 40 301 -39 75 -126 92 -226 43z"/>
</g>
</svg>
